<svg xmlns="http://www.w3.org/2000/svg" width="1200" height="240" viewBox="0 0 1200 240"><defs><linearGradient id="silk" x2="0" y2="1"><stop stop-color="#e5e8d5"/><stop offset="1" stop-color="#cdd8c3"/></linearGradient></defs><path d="M24 20H1164L1181 38V207L1164 224H24L12 210V35Z" fill="url(#silk)" stroke="#778d76" stroke-width="2"/><path d="M35 32H1157L1169 44V198L1157 212H35Z" fill="none" stroke="#b4b891"/><path d="M23 13H1173V24H23Z M23 219H1173V230H23Z" fill="#59796b" stroke="#c8bb85"/><path d="M7 10H24V28H7Z M1173 10H1190V28H1173Z M7 215H24V235H7Z M1173 215H1190V235H1173Z" fill="#a8b995" stroke="#647e67"/><path d="M47 50Q90 45 115 65Q140 85 170 75M1010 185Q1080 145 1140 169" fill="none" stroke="#95af98" opacity=".25"/></svg>